<svg xmlns="http://www.w3.org/2000/svg" width="11.179" height="11.179" viewBox="0 0 11.179 11.179">
  <path id="shopping-bag" d="M9.782,2.795h-1.4a2.795,2.795,0,0,0-5.589,0H1.4A1.4,1.4,0,0,0,0,4.192V8.85a2.332,2.332,0,0,0,2.329,2.329H8.85A2.332,2.332,0,0,0,11.179,8.85V4.192A1.4,1.4,0,0,0,9.782,2.795ZM5.589.932A1.863,1.863,0,0,1,7.453,2.795H3.726A1.863,1.863,0,0,1,5.589.932ZM10.247,8.85a1.4,1.4,0,0,1-1.4,1.4H2.329a1.4,1.4,0,0,1-1.4-1.4V4.192A.466.466,0,0,1,1.4,3.726h1.4v.932a.466.466,0,0,0,.932,0V3.726H7.453v.932a.466.466,0,0,0,.932,0V3.726h1.4a.466.466,0,0,1,.466.466Z" fill="#666"/>
</svg>
